<svg width="644" height="739" viewBox="0 0 644 739" fill="none" xmlns="http://www.w3.org/2000/svg">
<rect y="1" width="644" height="738" fill="#F0F0F0"/>
<path d="M167.771 536.658C195.718 536.658 218.374 514.001 218.374 486.051C218.374 458.102 195.718 435.445 167.771 435.445C139.823 435.445 117.167 458.102 117.167 486.051C117.167 514.001 139.823 536.658 167.771 536.658Z" fill="#F0F0F0"/>
<path d="M494.96 536.658C522.908 536.658 545.564 514.001 545.564 486.051C545.564 458.102 522.908 435.445 494.96 435.445C467.013 435.445 444.357 458.102 444.357 486.051C444.357 514.001 467.013 536.658 494.96 536.658Z" fill="#F0F0F0"/>
<path d="M321.661 536.658C349.609 536.658 372.265 514.001 372.265 486.051C372.265 458.102 349.609 435.445 321.661 435.445C293.714 435.445 271.058 458.102 271.058 486.051C271.058 514.001 293.714 536.658 321.661 536.658Z" fill="#F0F0F0"/>
<path d="M519.555 507.985C515.567 505.884 511.405 504.132 507.115 502.749L506.567 496.697L484.381 494.307L481.562 502.042L473.6 505.031C473.315 505.139 473.043 505.28 472.791 505.451H472.783C471.479 505.562 470.224 505.996 469.13 506.714C468.388 507.187 467.729 507.779 467.178 508.465C468.255 509.281 469.374 510.039 470.527 510.763L470.578 510.788C470.906 510.99 471.243 511.192 471.579 511.386C472.185 511.748 472.808 512.093 473.431 512.421L473.827 512.623C474.736 513.094 475.662 513.54 476.613 513.953C476.806 514.037 477.017 514.121 477.21 514.205C477.227 514.214 477.235 514.214 477.252 514.222C477.698 514.407 478.144 514.584 478.599 514.752C480.092 515.323 481.615 515.812 483.161 516.217C487.106 517.269 491.172 517.801 495.255 517.8C496.745 517.8 498.218 517.732 499.675 517.589C503.002 517.282 506.286 516.619 509.472 515.611C509.479 515.611 509.489 515.603 509.497 515.603C511.509 514.962 513.475 514.183 515.38 513.271C515.388 513.263 515.405 513.263 515.414 513.254C515.843 513.052 516.255 512.833 516.676 512.623L516.878 512.522C517.215 512.345 517.552 512.168 517.889 511.983C518.73 511.52 519.555 511.032 520.371 510.51C520.598 510.376 520.817 510.232 521.044 510.081C521.364 509.87 521.684 509.652 521.995 509.424C521.213 508.919 520.396 508.44 519.555 507.985Z" fill="#05396A"/>
<path d="M494.603 490.481C503.428 490.481 510.582 483.326 510.582 474.501C510.582 465.675 503.428 458.521 494.603 458.521C485.778 458.521 478.625 465.675 478.625 474.501C478.625 483.326 485.778 490.481 494.603 490.481Z" fill="#A0616A"/>
<path d="M483.875 466.717C485.529 468.675 488.329 469.227 490.911 469.454C496.155 469.914 503.781 469.168 508.906 467.984C509.272 471.53 508.274 475.353 510.363 478.269C511.341 474.738 511.911 471.107 512.059 467.445C512.215 465.875 512.01 464.289 511.459 462.81C511.165 462.068 510.669 461.424 510.027 460.951C509.385 460.478 508.623 460.194 507.828 460.132C509.018 459.229 510.412 458.633 511.888 458.396L506.814 455.846L508.117 454.508L498.931 453.946L501.592 452.256C497.588 451.706 493.537 451.578 489.506 451.875C487.634 452.012 485.677 452.276 484.16 453.36C482.644 454.445 481.767 456.601 482.709 458.193C481.53 458.387 480.42 458.878 479.485 459.621C478.549 460.363 477.818 461.332 477.362 462.436C476.784 464.191 476.645 466.06 476.956 467.881C477.302 470.803 477.981 473.675 478.979 476.442L483.875 466.717Z" fill="#2F2E41"/>
<path d="M324.468 458.651C328.199 458.651 331.224 455.626 331.224 451.895C331.224 448.163 328.199 445.138 324.468 445.138C320.737 445.138 317.712 448.163 317.712 451.895C317.712 455.626 320.737 458.651 324.468 458.651Z" fill="#2F2E41"/>
<path d="M318.607 455.41C317.753 454.612 317.12 453.605 316.771 452.489C316.423 451.373 316.369 450.185 316.617 449.042C316.865 447.9 317.405 446.84 318.184 445.969C318.963 445.097 319.956 444.443 321.064 444.069C320.136 444.205 319.246 444.533 318.451 445.031C317.657 445.53 316.974 446.188 316.448 446.965C315.922 447.742 315.564 448.619 315.396 449.542C315.227 450.465 315.253 451.413 315.472 452.326C315.69 453.238 316.096 454.095 316.664 454.842C317.232 455.588 317.949 456.209 318.769 456.663C319.59 457.117 320.496 457.396 321.431 457.481C322.365 457.565 323.307 457.454 324.196 457.155C323.193 457.303 322.169 457.223 321.202 456.921C320.234 456.619 319.347 456.102 318.607 455.41L318.607 455.41Z" fill="#2F2E41"/>
<path d="M324.604 495.188C335.565 495.188 344.451 486.302 344.451 475.34C344.451 464.378 335.565 455.492 324.604 455.492C313.643 455.492 304.758 464.378 304.758 475.34C304.758 486.302 313.643 495.188 324.604 495.188Z" fill="#2F2E41"/>
<path d="M306.948 464.412C310.368 460.566 315.148 458.199 320.28 457.81C325.412 457.422 330.494 459.043 334.453 462.33C334.291 462.176 334.129 462.02 333.962 461.871C330.041 458.358 324.886 456.547 319.631 456.836C314.375 457.125 309.449 459.49 305.937 463.41C302.425 467.331 300.614 472.487 300.902 477.743C301.191 482.999 303.556 487.925 307.476 491.437C307.514 491.471 307.552 491.505 307.59 491.538C307.758 491.688 307.931 491.83 308.104 491.973C304.375 488.425 302.17 483.568 301.955 478.426C301.739 473.284 303.53 468.259 306.949 464.412H306.948Z" fill="#2F2E41"/>
<path d="M324.436 495.019C331.496 495.019 337.218 489.296 337.218 482.236C337.218 475.176 331.496 469.453 324.436 469.453C317.377 469.453 311.654 475.176 311.654 482.236C311.654 489.296 317.377 495.019 324.436 495.019Z" fill="#A0616A"/>
<path d="M347.31 515.543V519.832C346.524 520.334 345.731 520.803 344.922 521.248C344.599 521.426 344.275 521.596 343.951 521.766L343.757 521.863C343.352 522.065 342.956 522.276 342.543 522.47C342.535 522.478 342.519 522.478 342.511 522.486C340.679 523.363 338.789 524.112 336.854 524.728C336.846 524.728 336.838 524.736 336.83 524.736C333.767 525.705 330.61 526.342 327.411 526.638C326.011 526.775 324.595 526.84 323.163 526.84C319.237 526.841 315.328 526.33 311.535 525.319C309.599 524.81 307.701 524.169 305.854 523.401C305.838 523.393 305.829 523.393 305.813 523.385C305.627 523.304 305.425 523.223 305.239 523.142C304.324 522.745 303.434 522.316 302.56 521.863L302.18 521.669C301.249 521.175 300.335 520.657 299.437 520.099L299.388 520.075C298.005 519.213 296.671 518.275 295.391 517.267C294.735 516.765 294.104 516.239 293.489 515.688C293.165 515.413 292.842 515.122 292.534 514.839C291.352 513.747 290.231 512.59 289.176 511.375C289.316 510.532 289.521 509.701 289.791 508.891L289.799 508.883C289.847 508.744 289.904 508.609 289.969 508.478C290.013 508.362 290.065 508.248 290.122 508.138C291.571 505.427 294.193 504.755 297.446 504.61C299.283 504.529 301.314 504.618 303.459 504.593C304.591 504.585 305.765 504.545 306.938 504.44C314.342 503.768 312.999 499.398 313.331 497.043C313.663 494.761 315.718 496.736 315.856 496.865L315.863 496.873C320.053 498.834 324.689 499.647 329.296 499.228C330.089 499.131 330.882 499.074 331.675 499.05C333.763 499.026 333.31 499.625 332.59 500.118C332.241 500.348 331.876 500.554 331.498 500.733C331.498 500.733 331.166 502.757 330.826 505.783C330.502 508.68 340.706 509.684 342.705 510.315H342.713C343.854 510.735 344.872 511.433 345.675 512.346C346.478 513.258 347.039 514.357 347.31 515.543Z" fill="#05396A"/>
<path d="M311.485 481.396C312.042 481.396 312.494 480.567 312.494 479.546C312.494 478.524 312.042 477.696 311.485 477.696C310.928 477.696 310.476 478.524 310.476 479.546C310.476 480.567 310.928 481.396 311.485 481.396Z" fill="#A0616A"/>
<path d="M337.387 481.396C337.945 481.396 338.397 480.567 338.397 479.546C338.397 478.524 337.945 477.696 337.387 477.696C336.83 477.696 336.378 478.524 336.378 479.546C336.378 480.567 336.83 481.396 337.387 481.396Z" fill="#A0616A"/>
<path d="M151.581 489.595L154.01 498.008L185.041 497.46L184.769 482.047C184.554 469.846 175.932 459.324 163.733 459.539C151.534 459.754 143.777 470.068 143.992 482.269L145.764 498.153L150.824 498.064L151.581 489.595Z" fill="#2F2E41"/>
<path d="M165.119 495.478C172.809 495.478 179.043 489.244 179.043 481.554C179.043 473.864 172.809 467.63 165.119 467.63C157.43 467.63 151.196 473.864 151.196 481.554C151.196 489.244 157.43 495.478 165.119 495.478Z" fill="#FFB6B6"/>
<path d="M180.361 471.777C180.343 470.71 180.009 469.673 179.402 468.797C179.338 468.707 179.274 468.623 179.209 468.539C178.694 467.881 178.032 467.351 177.278 466.99C176.523 466.629 175.695 466.448 174.859 466.46L164.852 466.641L154.851 466.814C153.418 466.843 152.055 467.438 151.06 468.469C150.065 469.501 149.519 470.884 149.542 472.317L151.923 477.112L153.294 479.867L153.519 479.738C162.175 474.872 165.714 474.808 177.169 479.332L177.401 479.422L178.309 477.099L180.368 471.828L180.361 471.777Z" fill="#2F2E41"/>
<path d="M192.834 503.268C189.847 500.288 179.744 501.472 179.744 501.472L153.075 503.152C147.161 503.589 141.832 508.326 139.901 510.244C140.21 510.547 140.526 510.843 140.848 511.126C146.774 516.393 154.224 519.637 162.117 520.387C170.011 521.137 177.938 519.354 184.75 515.296C187.608 513.591 191.264 511.546 193.555 509.158C194.462 508.219 195.188 508.237 195.993 507.207C195.391 505.589 194.283 504.207 192.834 503.268Z" fill="#05396A"/>
<path d="M167.771 676C195.718 676 218.374 653.343 218.374 625.393C218.374 597.444 195.718 574.787 167.771 574.787C139.823 574.787 117.167 597.444 117.167 625.393C117.167 653.343 139.823 676 167.771 676Z" fill="#F0F0F0"/>
<path d="M494.96 676C522.908 676 545.564 653.343 545.564 625.393C545.564 597.444 522.908 574.787 494.96 574.787C467.013 574.787 444.357 597.444 444.357 625.393C444.357 653.343 467.013 676 494.96 676Z" fill="#F0F0F0"/>
<path d="M321.661 676C349.609 676 372.265 653.343 372.265 625.393C372.265 597.444 349.609 574.787 321.661 574.787C293.714 574.787 271.058 597.444 271.058 625.393C271.058 653.343 293.714 676 321.661 676Z" fill="#F0F0F0"/>
<path d="M166.943 632.652C174.669 632.652 180.933 626.389 180.933 618.662C180.933 610.935 174.669 604.671 166.943 604.671C159.217 604.671 152.953 610.935 152.953 618.662C152.953 626.389 159.217 632.652 166.943 632.652Z" fill="#FFB8B8"/>
<path d="M153.708 623.039C153.708 623.039 154.896 620.951 154.62 613.978C154.344 607.004 164.962 610.948 173.835 610.283C182.708 609.618 180.83 621.926 180.83 621.926C180.83 621.926 181.47 621.194 182.841 615.254C184.211 609.314 181.099 603.394 181.099 603.394C180.183 597.152 175.244 599.153 175.244 599.153C177.622 600.079 177.166 602.059 177.166 602.059C175.152 598.528 170.213 600.529 170.213 600.529C163.626 596.395 156.949 601.839 156.949 601.839C148.991 603.645 153.658 609.974 153.658 609.974C145.655 614.019 153.708 623.039 153.708 623.039Z" fill="#2F2E41"/>
<path d="M190.286 651.497C186.298 649.396 182.136 647.644 177.845 646.262L177.298 640.21L155.112 637.819L152.292 645.555L144.33 648.543C144.045 648.651 143.774 648.792 143.522 648.964H143.513C142.209 649.074 140.954 649.508 139.861 650.226C139.119 650.7 138.459 651.291 137.908 651.977C138.985 652.793 140.104 653.551 141.258 654.275L141.308 654.3C141.637 654.502 141.973 654.704 142.31 654.898C142.916 655.26 143.539 655.605 144.162 655.933L144.557 656.135C145.466 656.606 146.392 657.053 147.343 657.465C147.537 657.549 147.747 657.633 147.941 657.718C147.957 657.726 147.966 657.726 147.982 657.734C148.429 657.92 148.875 658.096 149.329 658.265C150.822 658.835 152.345 659.324 153.891 659.729C157.837 660.781 161.903 661.313 165.986 661.312C167.476 661.312 168.949 661.244 170.405 661.101C173.732 660.794 177.017 660.131 180.202 659.123C180.21 659.123 180.219 659.115 180.227 659.115C182.24 658.474 184.205 657.695 186.111 656.783C186.119 656.775 186.136 656.775 186.144 656.766C186.574 656.564 186.986 656.346 187.407 656.135L187.609 656.034C187.945 655.857 188.282 655.681 188.619 655.495C189.461 655.032 190.286 654.544 191.101 654.022C191.328 653.888 191.548 653.745 191.775 653.593C192.095 653.383 192.414 653.164 192.726 652.937C191.943 652.432 191.127 651.952 190.286 651.497Z" fill="#05396A"/>
<path d="M340.901 648.537L332.479 647.772L327.439 644.091C327.439 644.084 327.437 644.077 327.433 644.071L327.42 644.078L327.218 643.928L327.192 644.162L318.686 647.434L309.946 645.417L306.922 648.689L293.455 653.157C292.807 653.588 292.237 654.127 291.771 654.75L291.771 654.758C292.337 655.201 292.918 655.637 293.507 656.05C294.842 657.015 296.229 657.905 297.662 658.717C301.149 660.706 304.878 662.238 308.756 663.276C309.107 663.373 309.459 663.464 309.81 663.549C310.421 663.698 311.039 663.842 311.656 663.959C312.905 664.219 314.169 664.422 315.448 664.57C317.327 664.798 319.219 664.911 321.112 664.908C322.406 664.908 323.687 664.858 324.955 664.759C327.183 664.579 329.395 664.242 331.575 663.75C331.653 663.731 331.731 663.718 331.809 663.692C335.148 662.926 338.393 661.797 341.486 660.323C341.96 660.096 342.435 659.861 342.903 659.621C344.054 659.029 345.173 658.392 346.259 657.709C347.078 657.202 347.878 656.662 348.658 656.103C349.14 655.758 349.614 655.407 350.082 655.042L350.032 654.935C349.201 653.164 347.92 651.642 346.319 650.52C344.717 649.397 342.849 648.714 340.901 648.537Z" fill="#05396A"/>
<path d="M332.856 606.501C331.873 605.528 330.765 604.69 329.559 604.01C322.113 599.9 313.978 599.829 307.241 603.809C305.566 604.796 304.036 606.011 302.696 607.418C298.915 611.364 296.799 616.613 296.784 622.077V638.283H339.171V620.419C339.171 615.632 336.537 610.091 332.856 606.501Z" fill="#2F2E41"/>
<path d="M317.14 637.841C325.594 637.841 332.448 630.987 332.448 622.531C332.448 614.076 325.594 607.222 317.14 607.222C308.685 607.222 301.831 614.076 301.831 622.531C301.831 630.987 308.685 637.841 317.14 637.841Z" fill="#FFB8B8"/>
<path d="M332.843 608.634C332.811 608.309 332.696 607.997 332.508 607.729C332.32 607.461 332.066 607.246 331.77 607.106C322.191 602.632 312.476 602.749 302.91 607.457H302.734L302.676 607.698C300.79 622.227 301.056 622.545 301.173 622.675C301.358 622.885 301.587 623.052 301.843 623.163C302.079 623.267 302.334 623.32 302.591 623.319H324.428L324.48 623.072C324.734 621.771 325.059 620.486 325.456 619.222C326.326 620.491 327.127 621.807 327.855 623.163L327.946 623.319H332.192C332.273 623.319 332.354 623.313 332.433 623.3C332.872 623.247 333.276 623.037 333.571 622.708C333.688 622.584 333.961 622.285 332.843 608.634Z" fill="#2F2E41"/>
<path d="M506.407 646.572L505.856 640.45L483.382 638.029L480.536 645.863L472.468 648.886C472.176 648.994 471.897 649.137 471.638 649.311C470.027 649.457 468.496 650.079 467.239 651.098C467.423 651.25 467.607 651.396 467.791 651.542C467.829 651.58 467.873 651.611 467.911 651.643C468.424 652.042 468.951 652.435 469.483 652.809C469.622 652.911 469.762 653.012 469.908 653.107C471.076 653.935 472.286 654.703 473.533 655.408C474.724 656.086 475.947 656.712 477.202 657.284C479.507 658.338 481.897 659.196 484.345 659.851C484.687 659.946 485.03 660.035 485.372 660.117C485.968 660.263 486.57 660.402 487.172 660.517C488.389 660.77 489.62 660.969 490.867 661.112C492.698 661.335 494.542 661.445 496.387 661.442C497.648 661.442 498.897 661.393 500.133 661.296C502.304 661.121 504.46 660.793 506.584 660.314C506.661 660.295 506.737 660.282 506.813 660.257C510.067 659.511 513.229 658.41 516.243 656.974C516.706 656.752 517.169 656.523 517.625 656.289C518.747 655.712 519.837 655.091 520.895 654.426C521.276 654.191 521.649 653.95 522.024 653.697C516.275 649.83 507.928 647.06 506.407 646.572Z" fill="#05396A"/>
<path d="M493.741 634.151C502.679 634.151 509.924 626.905 509.924 617.966C509.924 609.028 502.679 601.782 493.741 601.782C484.803 601.782 477.557 609.028 477.557 617.966C477.557 626.905 484.803 634.151 493.741 634.151Z" fill="#A0616A"/>
<path d="M482.878 610.082C484.553 612.064 487.388 612.624 490.004 612.851C495.315 613.317 503.038 612.561 508.229 611.363C508.602 614.954 507.59 618.825 509.704 621.78C510.695 618.203 511.272 614.525 511.422 610.817C511.58 609.226 511.372 607.62 510.815 606.122C510.517 605.371 510.014 604.719 509.364 604.239C508.714 603.76 507.942 603.472 507.137 603.41C507.315 603.227 507.437 602.997 507.489 602.747C507.542 602.497 507.522 602.237 507.433 601.998C507.238 601.153 506.807 600.381 506.191 599.771C505.576 599.161 504.799 598.737 503.953 598.55L498.127 597.146C498.127 597.146 492.66 594.748 488.576 595.049C486.68 595.188 484.698 595.455 483.162 596.554C481.627 597.653 480.739 599.836 481.693 601.448C480.499 601.644 479.375 602.142 478.427 602.894C477.479 603.646 476.739 604.628 476.277 605.746C475.693 607.523 475.551 609.416 475.866 611.261C476.216 614.22 476.904 617.129 477.915 619.932L482.878 610.082Z" fill="#2F2E41"/>
<path d="M338.245 472.454C337.754 470.881 336.659 469.567 335.201 468.801C333.754 468.049 332.208 467.506 330.609 467.186C327.815 466.382 324.918 465.986 322.01 466.009C319.11 466.152 316.146 467.153 314.175 469.286C312.205 471.419 311.475 474.805 312.91 477.329L312.751 477.982C315.052 478.256 317.382 477.856 319.461 476.833C321.539 475.809 323.276 474.204 324.461 472.214C325.549 473.932 327.094 475.312 328.923 476.201C330.751 477.089 332.792 477.451 334.814 477.244C335.46 477.192 336.089 477.011 336.663 476.712C337.345 476.262 337.865 475.607 338.15 474.842C338.434 474.076 338.468 473.24 338.245 472.454Z" fill="#2F2E41"/>
<path d="M382.026 95.5391H260.975C259.462 95.5391 258.012 94.9383 256.943 93.869C255.874 92.7996 255.273 91.3493 255.273 89.837C255.273 88.3247 255.874 86.8744 256.943 85.8051C258.012 84.7357 259.462 84.135 260.975 84.135H382.026C383.538 84.135 384.988 84.7357 386.057 85.8051C387.127 86.8744 387.727 88.3247 387.727 89.837C387.727 91.3493 387.127 92.7996 386.057 93.869C384.988 94.9383 383.538 95.5391 382.026 95.5391Z" fill="#E4E4E4"/>
<path d="M362.508 76.0205H280.492C278.981 76.0188 277.532 75.4174 276.464 74.3482C275.396 73.279 274.796 71.8296 274.796 70.3185C274.796 68.8073 275.396 67.3579 276.464 66.2887C277.532 65.2196 278.981 64.6181 280.492 64.6164H362.508C364.02 64.6164 365.471 65.2172 366.54 66.2865C367.609 67.3558 368.21 68.8062 368.21 70.3185C368.21 71.8307 367.609 73.2811 366.54 74.3504C365.471 75.4198 364.02 76.0205 362.508 76.0205Z" fill="#E4E4E4"/>
<path d="M167.771 256.658C195.718 256.658 218.374 234.001 218.374 206.051C218.374 178.102 195.718 155.445 167.771 155.445C139.823 155.445 117.167 178.102 117.167 206.051C117.167 234.001 139.823 256.658 167.771 256.658Z" fill="#F0F0F0"/>
<path d="M494.96 256.658C522.908 256.658 545.564 234.001 545.564 206.051C545.564 178.102 522.908 155.445 494.96 155.445C467.013 155.445 444.357 178.102 444.357 206.051C444.357 234.001 467.013 256.658 494.96 256.658Z" fill="#F0F0F0"/>
<path d="M321.661 256.658C349.609 256.658 372.265 234.001 372.265 206.051C372.265 178.102 349.609 155.445 321.661 155.445C293.714 155.445 271.058 178.102 271.058 206.051C271.058 234.001 293.714 256.658 321.661 256.658Z" fill="#F0F0F0"/>
<path d="M519.555 227.985C515.567 225.884 511.405 224.132 507.115 222.749L506.567 216.697L484.381 214.307L481.562 222.042L473.6 225.031C473.315 225.139 473.043 225.28 472.791 225.451H472.783C471.479 225.562 470.224 225.996 469.13 226.714C468.388 227.187 467.729 227.779 467.178 228.465C468.255 229.281 469.374 230.039 470.527 230.763L470.578 230.788C470.906 230.99 471.243 231.192 471.579 231.386C472.185 231.747 472.808 232.093 473.431 232.421L473.827 232.623C474.736 233.094 475.662 233.54 476.613 233.953C476.806 234.037 477.017 234.121 477.21 234.205C477.227 234.214 477.235 234.214 477.252 234.222C477.698 234.407 478.144 234.584 478.599 234.752C480.092 235.323 481.615 235.812 483.161 236.217C487.106 237.269 491.172 237.801 495.255 237.8C496.745 237.8 498.218 237.732 499.675 237.589C503.002 237.282 506.286 236.619 509.472 235.611C509.479 235.611 509.489 235.603 509.497 235.603C511.509 234.962 513.475 234.182 515.38 233.271C515.388 233.263 515.405 233.263 515.414 233.254C515.843 233.052 516.255 232.833 516.676 232.623L516.878 232.522C517.215 232.345 517.552 232.168 517.889 231.983C518.73 231.52 519.555 231.032 520.371 230.51C520.598 230.376 520.817 230.232 521.044 230.081C521.364 229.87 521.684 229.652 521.995 229.424C521.213 228.919 520.396 228.44 519.555 227.985Z" fill="#05396A"/>
<path d="M494.603 210.481C503.428 210.481 510.582 203.326 510.582 194.501C510.582 185.675 503.428 178.521 494.603 178.521C485.778 178.521 478.625 185.675 478.625 194.501C478.625 203.326 485.778 210.481 494.603 210.481Z" fill="#A0616A"/>
<path d="M483.875 186.717C485.529 188.675 488.329 189.227 490.911 189.454C496.155 189.914 503.781 189.168 508.906 187.984C509.272 191.53 508.274 195.353 510.363 198.269C511.341 194.738 511.911 191.107 512.059 187.445C512.215 185.875 512.01 184.289 511.459 182.81C511.165 182.068 510.669 181.424 510.027 180.951C509.385 180.478 508.623 180.194 507.828 180.132C509.018 179.229 510.412 178.633 511.888 178.396L506.814 175.846L508.117 174.508L498.931 173.946L501.592 172.256C497.588 171.706 493.537 171.578 489.506 171.874C487.634 172.012 485.677 172.276 484.16 173.36C482.644 174.445 481.767 176.601 482.709 178.193C481.53 178.387 480.42 178.878 479.485 179.621C478.549 180.363 477.818 181.332 477.362 182.436C476.784 184.191 476.645 186.06 476.956 187.881C477.302 190.803 477.981 193.675 478.979 196.442L483.875 186.717Z" fill="#2F2E41"/>
<path d="M324.468 178.651C328.199 178.651 331.224 175.626 331.224 171.895C331.224 168.163 328.199 165.138 324.468 165.138C320.737 165.138 317.712 168.163 317.712 171.895C317.712 175.626 320.737 178.651 324.468 178.651Z" fill="#2F2E41"/>
<path d="M318.607 175.41C317.753 174.612 317.12 173.605 316.771 172.489C316.423 171.373 316.369 170.185 316.617 169.042C316.865 167.9 317.405 166.84 318.184 165.969C318.963 165.097 319.956 164.443 321.064 164.069C320.136 164.205 319.246 164.533 318.451 165.031C317.657 165.53 316.974 166.188 316.448 166.965C315.922 167.742 315.564 168.619 315.396 169.542C315.227 170.465 315.253 171.413 315.472 172.326C315.69 173.238 316.096 174.095 316.664 174.842C317.232 175.588 317.949 176.209 318.769 176.663C319.59 177.117 320.496 177.396 321.431 177.481C322.365 177.565 323.307 177.454 324.196 177.155C323.193 177.303 322.169 177.223 321.202 176.921C320.234 176.619 319.347 176.102 318.607 175.41L318.607 175.41Z" fill="#2F2E41"/>
<path d="M324.604 215.188C335.565 215.188 344.451 206.302 344.451 195.34C344.451 184.378 335.565 175.492 324.604 175.492C313.643 175.492 304.758 184.378 304.758 195.34C304.758 206.302 313.643 215.188 324.604 215.188Z" fill="#2F2E41"/>
<path d="M306.948 184.412C310.368 180.566 315.148 178.199 320.28 177.81C325.412 177.422 330.494 179.043 334.453 182.33C334.291 182.176 334.129 182.02 333.962 181.871C330.041 178.358 324.886 176.547 319.631 176.836C314.375 177.125 309.449 179.49 305.937 183.41C302.425 187.331 300.614 192.487 300.902 197.743C301.191 202.999 303.556 207.925 307.476 211.437C307.514 211.471 307.552 211.505 307.59 211.538C307.758 211.688 307.931 211.83 308.104 211.973C304.375 208.425 302.17 203.568 301.955 198.426C301.739 193.284 303.53 188.259 306.949 184.412H306.948Z" fill="#2F2E41"/>
<path d="M324.436 215.019C331.496 215.019 337.218 209.296 337.218 202.236C337.218 195.176 331.496 189.453 324.436 189.453C317.377 189.453 311.654 195.176 311.654 202.236C311.654 209.296 317.377 215.019 324.436 215.019Z" fill="#A0616A"/>
<path d="M347.31 235.543V239.832C346.524 240.334 345.731 240.803 344.922 241.248C344.599 241.426 344.275 241.596 343.951 241.766L343.757 241.863C343.352 242.065 342.956 242.276 342.543 242.47C342.535 242.478 342.519 242.478 342.511 242.486C340.679 243.363 338.789 244.112 336.854 244.728C336.846 244.728 336.838 244.736 336.83 244.736C333.767 245.705 330.61 246.342 327.411 246.638C326.011 246.775 324.595 246.84 323.163 246.84C319.237 246.841 315.328 246.33 311.535 245.319C309.599 244.81 307.701 244.169 305.854 243.401C305.838 243.393 305.829 243.393 305.813 243.385C305.627 243.304 305.425 243.223 305.239 243.142C304.324 242.745 303.434 242.316 302.56 241.863L302.18 241.669C301.249 241.175 300.335 240.657 299.437 240.099L299.388 240.075C298.005 239.213 296.671 238.275 295.391 237.267C294.735 236.765 294.104 236.239 293.489 235.688C293.165 235.413 292.842 235.122 292.534 234.839C291.352 233.747 290.231 232.59 289.176 231.375C289.316 230.532 289.521 229.701 289.791 228.891L289.799 228.883C289.847 228.744 289.904 228.609 289.969 228.478C290.013 228.362 290.065 228.248 290.122 228.138C291.571 225.427 294.193 224.755 297.446 224.61C299.283 224.529 301.314 224.618 303.459 224.593C304.591 224.585 305.765 224.545 306.938 224.44C314.342 223.768 312.999 219.398 313.331 217.043C313.663 214.761 315.718 216.736 315.856 216.865L315.863 216.873C320.053 218.834 324.689 219.647 329.296 219.228C330.089 219.131 330.882 219.074 331.675 219.05C333.763 219.026 333.31 219.625 332.59 220.118C332.241 220.348 331.876 220.554 331.498 220.733C331.498 220.733 331.166 222.757 330.826 225.783C330.502 228.68 340.706 229.684 342.705 230.315H342.713C343.854 230.735 344.872 231.433 345.675 232.346C346.478 233.258 347.039 234.357 347.31 235.543Z" fill="#05396A"/>
<path d="M311.485 201.396C312.042 201.396 312.494 200.567 312.494 199.546C312.494 198.524 312.042 197.696 311.485 197.696C310.928 197.696 310.476 198.524 310.476 199.546C310.476 200.567 310.928 201.396 311.485 201.396Z" fill="#A0616A"/>
<path d="M337.387 201.396C337.945 201.396 338.397 200.567 338.397 199.546C338.397 198.524 337.945 197.696 337.387 197.696C336.83 197.696 336.378 198.524 336.378 199.546C336.378 200.567 336.83 201.396 337.387 201.396Z" fill="#A0616A"/>
<path d="M151.581 209.595L154.01 218.008L185.041 217.46L184.769 202.047C184.554 189.846 175.932 179.324 163.733 179.539C151.534 179.754 143.777 190.068 143.992 202.269L145.764 218.153L150.824 218.064L151.581 209.595Z" fill="#2F2E41"/>
<path d="M165.119 215.478C172.809 215.478 179.043 209.244 179.043 201.554C179.043 193.864 172.809 187.63 165.119 187.63C157.43 187.63 151.196 193.864 151.196 201.554C151.196 209.244 157.43 215.478 165.119 215.478Z" fill="#FFB6B6"/>
<path d="M180.361 191.777C180.343 190.71 180.009 189.673 179.402 188.797C179.338 188.707 179.274 188.623 179.209 188.539C178.694 187.881 178.032 187.351 177.278 186.99C176.523 186.629 175.695 186.448 174.859 186.46L164.852 186.641L154.851 186.814C153.418 186.843 152.055 187.438 151.06 188.469C150.065 189.501 149.519 190.884 149.542 192.317L151.923 197.112L153.294 199.867L153.519 199.738C162.175 194.872 165.714 194.808 177.169 199.332L177.401 199.422L178.309 197.099L180.368 191.828L180.361 191.777Z" fill="#2F2E41"/>
<path d="M192.834 223.268C189.847 220.288 179.744 221.472 179.744 221.472L153.075 223.152C147.161 223.589 141.832 228.326 139.901 230.244C140.21 230.547 140.526 230.843 140.848 231.126C146.774 236.393 154.224 239.637 162.117 240.387C170.011 241.137 177.938 239.354 184.75 235.296C187.608 233.591 191.264 231.546 193.555 229.158C194.462 228.219 195.188 228.237 195.993 227.207C195.391 225.589 194.283 224.207 192.834 223.268Z" fill="#05396A"/>
<path d="M167.771 396C195.718 396 218.374 373.343 218.374 345.393C218.374 317.444 195.718 294.787 167.771 294.787C139.823 294.787 117.167 317.444 117.167 345.393C117.167 373.343 139.823 396 167.771 396Z" fill="#F0F0F0"/>
<path d="M494.96 396C522.908 396 545.564 373.343 545.564 345.393C545.564 317.444 522.908 294.787 494.96 294.787C467.013 294.787 444.357 317.444 444.357 345.393C444.357 373.343 467.013 396 494.96 396Z" fill="#F0F0F0"/>
<path d="M321.661 396C349.609 396 372.265 373.343 372.265 345.393C372.265 317.444 349.609 294.787 321.661 294.787C293.714 294.787 271.058 317.444 271.058 345.393C271.058 373.343 293.714 396 321.661 396Z" fill="#F0F0F0"/>
<path d="M166.943 352.652C174.669 352.652 180.933 346.389 180.933 338.662C180.933 330.935 174.669 324.671 166.943 324.671C159.217 324.671 152.953 330.935 152.953 338.662C152.953 346.389 159.217 352.652 166.943 352.652Z" fill="#FFB8B8"/>
<path d="M153.708 343.039C153.708 343.039 154.896 340.951 154.62 333.978C154.344 327.004 164.962 330.948 173.835 330.283C182.708 329.618 180.83 341.926 180.83 341.926C180.83 341.926 181.47 341.194 182.841 335.254C184.211 329.314 181.099 323.394 181.099 323.394C180.183 317.152 175.244 319.153 175.244 319.153C177.622 320.079 177.166 322.059 177.166 322.059C175.152 318.528 170.213 320.529 170.213 320.529C163.626 316.395 156.949 321.839 156.949 321.839C148.991 323.645 153.658 329.974 153.658 329.974C145.655 334.019 153.708 343.039 153.708 343.039Z" fill="#2F2E41"/>
<path d="M190.286 371.497C186.298 369.396 182.136 367.644 177.845 366.262L177.298 360.21L155.112 357.819L152.292 365.555L144.33 368.543C144.045 368.651 143.774 368.792 143.522 368.964H143.513C142.209 369.074 140.954 369.508 139.861 370.226C139.119 370.7 138.459 371.291 137.908 371.977C138.985 372.793 140.104 373.551 141.258 374.275L141.308 374.3C141.637 374.502 141.973 374.704 142.31 374.898C142.916 375.26 143.539 375.605 144.162 375.933L144.557 376.135C145.466 376.606 146.392 377.053 147.343 377.465C147.537 377.549 147.747 377.633 147.941 377.718C147.957 377.726 147.966 377.726 147.982 377.734C148.429 377.92 148.875 378.096 149.329 378.265C150.822 378.835 152.345 379.324 153.891 379.729C157.837 380.781 161.903 381.313 165.986 381.312C167.476 381.312 168.949 381.244 170.405 381.101C173.732 380.794 177.017 380.131 180.202 379.123C180.21 379.123 180.219 379.115 180.227 379.115C182.24 378.474 184.205 377.695 186.111 376.783C186.119 376.775 186.136 376.775 186.144 376.766C186.574 376.564 186.986 376.346 187.407 376.135L187.609 376.034C187.945 375.857 188.282 375.681 188.619 375.495C189.461 375.032 190.286 374.544 191.101 374.022C191.328 373.888 191.548 373.745 191.775 373.593C192.095 373.383 192.414 373.164 192.726 372.937C191.943 372.431 191.127 371.952 190.286 371.497Z" fill="#05396A"/>
<path d="M340.901 368.537L332.479 367.772L327.439 364.091C327.439 364.084 327.437 364.077 327.433 364.071L327.42 364.078L327.218 363.928L327.192 364.162L318.686 367.434L309.946 365.417L306.922 368.689L293.455 373.157C292.807 373.588 292.237 374.127 291.771 374.75L291.771 374.758C292.337 375.201 292.918 375.637 293.507 376.05C294.842 377.015 296.229 377.905 297.662 378.717C301.149 380.706 304.878 382.238 308.756 383.276C309.107 383.373 309.459 383.464 309.81 383.549C310.421 383.698 311.039 383.842 311.656 383.959C312.905 384.219 314.169 384.422 315.448 384.57C317.327 384.798 319.219 384.911 321.112 384.908C322.406 384.908 323.687 384.858 324.955 384.759C327.183 384.579 329.395 384.242 331.575 383.75C331.653 383.731 331.731 383.718 331.809 383.692C335.148 382.926 338.393 381.797 341.486 380.323C341.96 380.096 342.435 379.861 342.903 379.621C344.054 379.029 345.173 378.392 346.259 377.709C347.078 377.202 347.878 376.662 348.658 376.103C349.14 375.758 349.614 375.407 350.082 375.042L350.032 374.935C349.201 373.164 347.92 371.642 346.319 370.52C344.717 369.397 342.849 368.714 340.901 368.537Z" fill="#05396A"/>
<path d="M332.856 326.501C331.873 325.528 330.765 324.69 329.559 324.011C322.113 319.9 313.978 319.829 307.241 323.809C305.566 324.796 304.036 326.011 302.696 327.418C298.915 331.364 296.799 336.613 296.784 342.077V358.283H339.171V340.419C339.171 335.632 336.537 330.091 332.856 326.501Z" fill="#2F2E41"/>
<path d="M317.14 357.841C325.594 357.841 332.448 350.987 332.448 342.531C332.448 334.076 325.594 327.222 317.14 327.222C308.685 327.222 301.831 334.076 301.831 342.531C301.831 350.987 308.685 357.841 317.14 357.841Z" fill="#FFB8B8"/>
<path d="M332.843 328.634C332.811 328.309 332.696 327.997 332.508 327.729C332.32 327.461 332.066 327.246 331.77 327.106C322.191 322.632 312.476 322.749 302.91 327.457H302.734L302.676 327.698C300.79 342.227 301.056 342.545 301.173 342.675C301.358 342.885 301.587 343.052 301.843 343.163C302.079 343.267 302.334 343.32 302.591 343.319H324.428L324.48 343.072C324.734 341.771 325.059 340.486 325.456 339.222C326.326 340.491 327.127 341.807 327.855 343.163L327.946 343.319H332.192C332.273 343.319 332.354 343.313 332.433 343.3C332.872 343.247 333.276 343.037 333.571 342.708C333.688 342.584 333.961 342.285 332.843 328.634Z" fill="#2F2E41"/>
<path d="M506.407 366.572L505.856 360.45L483.382 358.029L480.536 365.863L472.468 368.886C472.176 368.994 471.897 369.137 471.638 369.311C470.027 369.457 468.496 370.079 467.239 371.098C467.423 371.25 467.607 371.396 467.791 371.542C467.829 371.58 467.873 371.611 467.911 371.643C468.424 372.042 468.951 372.435 469.483 372.809C469.622 372.911 469.762 373.012 469.908 373.107C471.076 373.935 472.286 374.703 473.533 375.408C474.724 376.086 475.947 376.712 477.202 377.284C479.507 378.338 481.897 379.196 484.345 379.851C484.687 379.946 485.03 380.035 485.372 380.117C485.968 380.263 486.57 380.402 487.172 380.517C488.389 380.77 489.62 380.969 490.867 381.112C492.698 381.335 494.542 381.445 496.387 381.442C497.648 381.442 498.897 381.393 500.133 381.296C502.304 381.121 504.46 380.793 506.584 380.314C506.661 380.295 506.737 380.282 506.813 380.257C510.067 379.511 513.229 378.41 516.243 376.973C516.706 376.752 517.169 376.523 517.625 376.289C518.747 375.712 519.837 375.091 520.895 374.425C521.276 374.191 521.649 373.95 522.024 373.697C516.275 369.83 507.928 367.06 506.407 366.572Z" fill="#05396A"/>
<path d="M493.741 354.151C502.679 354.151 509.924 346.905 509.924 337.966C509.924 329.028 502.679 321.782 493.741 321.782C484.803 321.782 477.557 329.028 477.557 337.966C477.557 346.905 484.803 354.151 493.741 354.151Z" fill="#A0616A"/>
<path d="M482.878 330.081C484.553 332.064 487.388 332.623 490.004 332.851C495.315 333.317 503.038 332.561 508.229 331.363C508.602 334.954 507.59 338.825 509.704 341.78C510.695 338.203 511.272 334.525 511.422 330.817C511.58 329.226 511.372 327.62 510.815 326.122C510.517 325.371 510.014 324.719 509.364 324.239C508.714 323.76 507.942 323.472 507.137 323.41C507.315 323.227 507.437 322.997 507.489 322.747C507.542 322.497 507.522 322.237 507.433 321.998C507.238 321.153 506.807 320.381 506.191 319.771C505.576 319.161 504.799 318.737 503.953 318.55L498.127 317.146C498.127 317.146 492.66 314.748 488.576 315.049C486.68 315.188 484.698 315.455 483.162 316.554C481.627 317.653 480.739 319.836 481.693 321.448C480.499 321.644 479.375 322.142 478.427 322.894C477.479 323.646 476.739 324.628 476.277 325.746C475.693 327.523 475.551 329.416 475.866 331.261C476.216 334.22 476.904 337.129 477.915 339.932L482.878 330.081Z" fill="#2F2E41"/>
<path d="M338.245 192.454C337.754 190.881 336.659 189.567 335.201 188.801C333.754 188.049 332.208 187.506 330.609 187.186C327.815 186.382 324.918 185.986 322.01 186.009C319.11 186.152 316.146 187.153 314.175 189.286C312.205 191.419 311.475 194.805 312.91 197.329L312.751 197.982C315.052 198.256 317.382 197.856 319.461 196.833C321.539 195.809 323.276 194.204 324.461 192.214C325.549 193.932 327.094 195.312 328.923 196.201C330.751 197.089 332.792 197.451 334.814 197.244C335.46 197.192 336.089 197.011 336.663 196.712C337.345 196.262 337.865 195.607 338.15 194.842C338.434 194.076 338.468 193.24 338.245 192.454Z" fill="#2F2E41"/>
</svg>
